{
.appVersion = "3202";
.formatVersion = 3;
DisplayStrings = (
"𜼃  𜼏  𜼄  𜼐
/_stem 𜼏𜼄𜼏𜼑𜼒𜼓𜼔𜼂𜼅𜼆𜼇𜼈𜼎𜼐𜼠𜼡𜼢𜼣𜼤𜼥𜼦𜼧𜼨𜼩𜼪𜼫𜼬
𜼭𜼃𜼀𜼁𜼌𜼍𜼘𜼙𜼛𜼝
/_dotaboveclr 𜼉𜼊𜼋𜼕𜼖𜼗
𜼚𜼜𜼞𜼟

𜼰𜼱𜼲𜼳𜼴𜼵𜼶𜼷𜼸𜼹𜼺𜼻𜼼𜼽𜼾𜼿𜽀/_circlefordotted ◌𜽁𜽂𜽃𜽄𜽅𜽆
𜽖𜽗𜽘𜽙𜽚𜽛𜽜𜽫𜽬𜽭𜽮𜽯𜽽𜽾𜽿𜾀𜾁𜾂𜾃𜾄𜾅𜾿𜿀𜿁𜿂
/_haczek 𜽐𜽑𜽒𜽓𜽔𜽕𜽰𜽱𜽲𜽳𜽴𜽵𜽶𜽷𜽸𜽹𜽺𜽻𜿃  𜽼
𜽝𜽞𜽟𜽠𜽡𜽢𜽣𜽤𜽥𜽦𜽧𜽨𜽩𜽪
𜾆𜾇𜾈𜾉𜾊𜾋𜾌𜾍𜾎𜾏𜾐𜾑𜾒𜾓𜾔𜾕𜾖𜾗𜾘𜾙𜾚𜾛𜾜𜾝𜾞𜾟𜾵𜾶
𜾠𜾡
𜾢𜾣𜾤𜾹𜾺𜾻
𜾥𜾦𜾼𜾽
𜾧𜾨𜾩𜾪𜾫
𜾬𜾭𜾮𜾾
𜾯𜾰𜾱𜾲𜾳𜾴",
"𜼚"
);
date = "2022-04-03 17:04:08 +0000";
familyName = "Noto Znammeny Musical Notation";
fontMaster = (
{
id = m01;
metricValues = (
{
over = 16;
pos = 800;
},
{
over = 16;
pos = 700;
},
{
over = 16;
pos = 500;
},
{
over = -16;
},
{
over = -16;
pos = -200;
},
{
over = -16;
}
);
name = Regular;
}
);
glyphs = (
{
color = 0;
glyphname = u1CF02;
lastChange = "2023-06-22 11:49:05 +0000";
layers = (
{
layerId = m01;
shapes = (
{
alignment = -1;
ref = _stem;
},
{
closed = 1;
nodes = (
(425,291,l),
(463,291,l),
(523,409,l),
(505,409,l)
);
},
{
closed = 1;
nodes = (
(306,394,l),
(512,394,l),
(523,409,l),
(306,409,l)
);
},
{
alignment = -1;
pos = (106,0);
ref = _stem;
}
);
width = 600;
}
);
unicode = 118530;
},
{
color = 0;
glyphname = u1CF03;
lastChange = "2023-06-22 11:49:05 +0000";
layers = (
{
layerId = m01;
shapes = (
{
closed = 1;
nodes = (
(316,542,l),
(476,542,l),
(476,557,l),
(316,557,l)
);
},
{
closed = 1;
nodes = (
(438,512,l),
(476,502,l),
(476,548,l),
(438,548,l)
);
},
{
ref = _stem;
}
);
width = 600;
}
);
unicode = 118531;
},
{
color = 0;
glyphname = u1CF04;
lastChange = "2023-06-22 11:49:05 +0000";
layers = (
{
layerId = m01;
shapes = (
{
closed = 1;
nodes = (
(344,471,l),
(443,471,l),
(443,486,l),
(344,486,l)
);
},
{
alignment = -1;
pos = (-16,0);
ref = _stem;
},
{
alignment = -1;
pos = (90,0);
ref = _stem;
}
);
width = 600;
}
);
unicode = 118532;
},
{
color = 0;
glyphname = u1CF11;
lastChange = "2023-06-22 11:49:05 +0000";
layers = (
{
layerId = m01;
shapes = (
{
closed = 1;
nodes = (
(376,441,o),
(391,454,o),
(391,474,cs),
(391,494,o),
(376,507,o),
(358,507,cs),
(340,507,o),
(325,494,o),
(325,474,cs),
(325,454,o),
(340,441,o),
(358,441,cs)
);
}
);
width = 600;
}
);
unicode = 118545;
},
{
color = 0;
glyphname = u1CF12;
lastChange = "2023-06-22 11:49:05 +0000";
layers = (
{
guides = (
{
pos = (262,402);
},
{
pos = (262,557);
}
);
layerId = m01;
shapes = (
{
closed = 1;
nodes = (
(422,407,l),
(453,444,l),
(422,557,l),
(386,548,l)
);
},
{
closed = 1;
nodes = (
(544,400,l),
(580,405,l),
(543,557,l),
(507,548,l)
);
},
{
closed = 1;
nodes = (
(435,402,l),
(519,540,l),
(507,548,l),
(422,407,l)
);
},
{
closed = 1;
nodes = (
(314,402,l),
(398,540,l),
(386,548,l),
(301,407,l)
);
}
);
width = 600;
}
);
unicode = 118546;
},
{
color = 0;
glyphname = u1CF13;
lastChange = "2023-06-22 11:49:05 +0000";
layers = (
{
layerId = m01;
shapes = (
{
alignment = -1;
ref = _stem;
},
{
alignment = -1;
pos = (106,0);
ref = _stem;
},
{
closed = 1;
nodes = (
(314,542,l),
(514,542,l),
(514,557,l),
(314,557,l)
);
}
);
width = 600;
}
);
unicode = 118547;
},
{
color = 0;
glyphname = u1CF14;
lastChange = "2023-06-22 11:49:05 +0000";
layers = (
{
layerId = m01;
shapes = (
{
alignment = -1;
ref = _stem;
},
{
alignment = -1;
pos = (106,0);
ref = _stem;
},
{
closed = 1;
nodes = (
(314,542,l),
(514,542,l),
(514,557,l),
(314,557,l)
);
},
{
closed = 1;
nodes = (
(306,394,l),
(506,394,l),
(506,409,l),
(306,409,l)
);
}
);
width = 600;
}
);
unicode = 118548;
},
{
color = 0;
glyphname = u1CF2D;
lastChange = "2023-06-22 11:49:05 +0000";
layers = (
{
layerId = m01;
shapes = (
{
closed = 1;
nodes = (
(319,187,l),
(521,347,l),
(511,362,l),
(309,202,l)
);
},
{
closed = 1;
nodes = (
(439,227,l),
(464,243,l),
(389,330,l),
(364,314,l)
);
}
);
width = 600;
}
);
unicode = 118573;
},
{
color = 11;
glyphname = u1CF30;
lastChange = "2023-06-22 11:49:19 +0000";
layers = (
{
layerId = m01;
shapes = (
{
closed = 1;
nodes = (
(175,538,l),
(184,662,l),
(99,595,l),
(90,471,l)
);
}
);
width = 600;
}
);
unicode = 118576;
},
{
color = 11;
glyphname = u1CF35;
lastChange = "2023-06-26 16:03:31 +0000";
layers = (
{
layerId = m01;
shapes = (
{
closed = 1;
nodes = (
(325,362,l),
(349,603,l),
(327,595,l),
(303,356,l)
);
}
);
width = 600;
}
);
unicode = 118581;
},
{
color = 11;
glyphname = u1CF36;
lastChange = "2023-06-26 15:47:25 +0000";
layers = (
{
layerId = m01;
shapes = (
{
closed = 1;
nodes = (
(180,-19,l),
(171,-57,o),
(174,-106,o),
(210,-106,cs),
(261,-106,o),
(281,-41,o),
(286,-3,c),
(308,3,l),
(297,-129,o),
(256,-198,o),
(198,-198,cs),
(139,-198,o),
(134,-141,o),
(158,-25,c)
);
}
);
width = 600;
}
);
unicode = 118582;
},
{
color = 11;
glyphname = u1CF37;
lastChange = "2023-06-26 15:48:58 +0000";
layers = (
{
layerId = m01;
shapes = (
{
closed = 1;
nodes = (
(218,-146,l),
(204,-283,l),
(182,-289,l),
(196,-151,l)
);
},
{
ref = u1CF36;
}
);
width = 600;
}
);
unicode = 118583;
},
{
color = 11;
glyphname = u1CF3B;
lastChange = "2023-06-26 15:58:12 +0000";
layers = (
{
layerId = m01;
shapes = (
{
closed = 1;
nodes = (
(397,703,l),
(383,566,l),
(361,560,l),
(375,698,l)
);
},
{
pos = (157,679);
ref = u1CF36;
}
);
width = 600;
}
);
unicode = 118587;
},
{
color = 11;
glyphname = u1CF3C;
lastChange = "2023-06-26 15:56:32 +0000";
layers = (
{
layerId = m01;
shapes = (
{
closed = 1;
nodes = (
(425,177,l),
(434,301,l),
(312,374,l),
(303,250,l)
);
}
);
width = 600;
}
);
unicode = 118588;
},
{
color = 11;
glyphname = u1CF3F;
lastChange = "2023-06-26 15:59:09 +0000";
layers = (
{
layerId = m01;
shapes = (
{
closed = 1;
nodes = (
(409,202,l),
(421,314,o),
(417,459,o),
(368,459,cs),
(317,459,o),
(297,394,o),
(292,356,c),
(270,350,l),
(281,482,o),
(322,551,o),
(380,551,cs),
(455,551,o),
(462,438,o),
(431,208,c)
);
}
);
width = 600;
}
);
unicode = 118591;
},
{
color = 11;
glyphname = u1CF40;
lastChange = "2023-06-26 16:03:27 +0000";
layers = (
{
layerId = m01;
shapes = (
{
closed = 1;
nodes = (
(409,236,l),
(418,360,l),
(333,293,l),
(324,169,l)
);
},
{
pos = (43,-223);
ref = u1CF35;
}
);
width = 600;
}
);
unicode = 118592;
},
{
color = 11;
glyphname = u1CF41;
lastChange = "2023-06-26 16:09:13 +0000";
layers = (
{
layerId = m01;
shapes = (
{
closed = 1;
nodes = (
(44,-64,l),
(184,-64,l),
(184,-20,l),
(44,-20,l)
);
}
);
width = 600;
}
);
unicode = 118593;
},
{
color = 11;
glyphname = u1CF50;
lastChange = "2023-06-26 16:26:06 +0000";
layers = (
{
layerId = m01;
shapes = (
{
closed = 1;
nodes = (
(67,481,l),
(17,2,l),
(52,105,l),
(92,496,l)
);
},
{
ref = _haczek;
}
);
width = 600;
}
);
unicode = 118608;
},
{
export = 0;
glyphname = _circlefordotted;
lastChange = "2023-06-26 16:04:54 +0000";
layers = (
{
layerId = m01;
shapes = (
{
closed = 1;
nodes = (
(326,424,o),
(343,440,o),
(343,462,cs),
(343,484,o),
(326,500,o),
(305,500,cs),
(284,500,o),
(267,484,o),
(267,462,cs),
(267,440,o),
(284,424,o),
(305,424,cs)
);
}
);
width = 600;
}
);
},
{
export = 0;
glyphname = _cmark;
lastChange = "2023-06-22 11:30:17 +0000";
layers = (
{
layerId = m01;
shapes = (
{
closed = 1;
nodes = (
(350,557,o),
(306,532,o),
(306,480,cs),
(306,426,o),
(348,402,o),
(389,402,cs),
(416,402,o),
(442,413,o),
(460,430,c),
(440,451,l),
(426,431,o),
(410,420,o),
(392,420,cs),
(367,420,o),
(344,441,o),
(344,479,cs),
(344,513,o),
(364,539,o),
(392,539,cs),
(409,539,o),
(424,530,o),
(435,512,c),
(455,533,l),
(438,550,o),
(416,557,o),
(389,557,cs)
);
}
);
width = 600;
}
);
},
{
color = 0;
export = 0;
glyphname = _dotaboveclr;
lastChange = "2023-06-22 11:49:05 +0000";
layers = (
{
layerId = m01;
shapes = (
{
closed = 1;
nodes = (
(483,586,o),
(494,597,o),
(494,612,cs),
(494,626,o),
(485,634,o),
(475,634,cs),
(463,634,o),
(452,623,o),
(452,608,cs),
(452,594,o),
(461,586,o),
(471,586,cs)
);
}
);
width = 600;
}
);
},
{
export = 0;
glyphname = _haczek;
lastChange = "2023-06-26 16:25:57 +0000";
layers = (
{
layerId = m01;
shapes = (
{
closed = 1;
nodes = (
(17,2,l),
(327,355,o),
(445,452,o),
(497,452,cs),
(517,452,o),
(548,418,o),
(561,382,c),
(586,496,l),
(566,561,o),
(540,579,o),
(518,579,cs),
(454,579,o),
(291,428,o),
(40,143,c)
);
}
);
width = 600;
}
);
},
